<?xml version="1.0" encoding="UTF-8" standalone="no"?> <svg width="64" height="64" viewBox="0 0 64 64" fill="none" xmlns="http://www.w3.org/2000/svg">
<path d="M48.7 25.39C48.3892 25.3538 48.0762 25.4355 47.8227 25.619C47.5692 25.8024 47.3938 26.0742 47.331 26.3807C47.2681 26.6872 47.3226 27.0061 47.4835 27.2744C47.6444 27.5428 47.9 27.741 48.2 27.83C55.45 29.33 58.75 31.6 58.75 33.07C58.95 35.49 50.57 38.25 44.6 38.94C44.616 38.8205 44.616 38.6995 44.6 38.58V25.42C44.6059 25.2014 44.5535 24.9851 44.448 24.7935C44.3425 24.6019 44.1879 24.4419 44 24.33L32.6 17.75C32.411 17.6373 32.1951 17.5777 31.975 17.5777C31.7549 17.5777 31.539 17.6373 31.35 17.75L25.91 20.9C27.59 8.56 31.62 -0.900001 35.7 10.28L32.26 9.18C31.9903 9.09584 31.7002 9.10476 31.4361 9.20533C31.1721 9.3059 30.9496 9.49227 30.8042 9.73453C30.6589 9.97679 30.5991 10.2609 30.6347 10.5411C30.6702 10.8214 30.7988 11.0816 31 11.28L38 17.86C38.1522 17.9925 38.3341 18.0865 38.5302 18.134C38.7263 18.1816 38.931 18.1813 39.127 18.1333C39.323 18.0853 39.5046 17.9909 39.6565 17.8581C39.8085 17.7252 39.9262 17.5578 40 17.37L43.17 8.37C43.2775 8.10176 43.2895 7.80472 43.204 7.52868C43.1185 7.25264 42.9407 7.01438 42.7005 6.85381C42.4602 6.69325 42.1721 6.62015 41.8843 6.64677C41.5966 6.67338 41.3267 6.79809 41.12 7L38.23 9.9C36.6 5.22 34.46 2.75 32 2.75C27.28 2.75 24.31 11.66 23.23 22.45L20 24.33C19.8084 24.4394 19.6497 24.5983 19.5407 24.7901C19.4316 24.9818 19.3761 25.1994 19.38 25.42V38.58C19.3796 38.7091 19.3999 38.8373 19.44 38.96C8 37.13 -0.39 33.38 10.08 29.44L9 33.12C8.92605 33.3897 8.94394 33.6764 9.05087 33.9349C9.1578 34.1933 9.34767 34.4088 9.59058 34.5475C9.83349 34.6861 10.1156 34.74 10.3925 34.7006C10.6694 34.6612 10.9254 34.5309 11.12 34.33L17.59 27.26C17.733 27.1093 17.8348 26.9244 17.8856 26.723C17.9364 26.5216 17.9344 26.3105 17.88 26.11C17.8285 25.9077 17.7275 25.7214 17.5861 25.5678C17.4447 25.4142 17.2673 25.2981 17.07 25.23L7.98 22.23C7.71147 22.1462 7.42262 22.1547 7.15947 22.2541C6.89632 22.3535 6.67399 22.5381 6.52792 22.7785C6.38184 23.0189 6.3204 23.3013 6.3534 23.5806C6.3864 23.86 6.51193 24.1203 6.71 24.32L9.47 27C5.06 28.61 2.75 30.69 2.75 33.07C2.75 37.91 12.11 40.9 23.27 41.92C24 47.66 25.71 60.75 32 61.25C36.42 61.25 38.72 53.39 39.69 48.71C39.7233 48.547 39.7238 48.379 39.6913 48.2159C39.6589 48.0527 39.5942 47.8977 39.5011 47.7598C39.4079 47.622 39.2882 47.5041 39.1489 47.4131C39.0097 47.3222 38.8536 47.2599 38.69 47.23C38.5275 47.1953 38.3597 47.1939 38.1966 47.2258C38.0336 47.2578 37.8787 47.3224 37.7413 47.4159C37.6039 47.5093 37.4869 47.6297 37.3973 47.7696C37.3077 47.9095 37.2474 48.0661 37.22 48.23C35.73 55.49 33.52 58.75 32 58.75C29.22 58.88 26.46 48.89 25.93 43.11L31.38 46.25C31.5387 46.3389 31.7148 46.3921 31.8962 46.406C32.0775 46.4198 32.2597 46.3939 32.43 46.33L32.63 46.25L40 42C46 41.4 60.69 39.75 61.22 33.09C61.25 28.64 53.39 26.35 48.7 25.39ZM21.85 37.86V27.58L22.85 28.15C22.7147 31.6069 22.7647 35.0685 23 38.52L21.85 37.86ZM30.75 43L29.49 42.28H30.75V43ZM30.75 39.8C28.94 39.8 27.21 39.71 25.57 39.6C25.2964 36.2742 25.2029 32.9359 25.29 29.6L30.75 32.75V39.8ZM32 30.56L25.4 26.75C25.45 25.75 25.51 24.87 25.59 23.98L32 20.27L40.9 25.42L32 30.56ZM33.25 43V42.3H34.51L33.25 43ZM42.15 37.86L39.27 39.53C37.27 39.68 35.27 39.77 33.27 39.8V32.72L42.17 27.58L42.15 37.86Z" fill="black"/>
</svg>
